HIERARCHY
ROOT root
{
	OFFSET 0.000000 0.000000 0.000000
	CHANNELS 6 Xposition Yposition Zposition Zrotation Yrotation Xrotation
	JOINT lhip
	{
		OFFSET 0.058581 -0.082280 -0.017664
		CHANNELS 3 Zrotation Yrotation Xrotation
		JOINT lknee
		{
			OFFSET 0.043451 -0.386469 0.008037
			CHANNELS 3 Zrotation Yrotation Xrotation
			JOINT lankle
			{
				OFFSET -0.014790 -0.426874 -0.037428
				CHANNELS 3 Zrotation Yrotation Xrotation
				JOINT ltoe
				{
					OFFSET 0.041054 -0.060286 0.122042
					CHANNELS 3 Zrotation Yrotation Xrotation
					End Site
					{
						OFFSET 0.000000 0.000000 0.000000
					}
				}
			}
		}
	}
	JOINT rhip
	{
		OFFSET -0.060310 -0.090513 -0.013543
		CHANNELS 3 Zrotation Yrotation Xrotation
		JOINT rknee
		{
			OFFSET -0.043257 -0.383688 -0.004843
			CHANNELS 3 Zrotation Yrotation Xrotation
			JOINT rankle
			{
				OFFSET 0.019056 -0.420046 -0.034562
				CHANNELS 3 Zrotation Yrotation Xrotation
				JOINT rtoe
				{
					OFFSET -0.034840 -0.062106 0.130323
					CHANNELS 3 Zrotation Yrotation Xrotation
					End Site
					{
						OFFSET 0.000000 0.000000 0.000000
					}
				}
			}
		}
	}
	JOINT lowerback
	{
		OFFSET 0.004439 0.124404 -0.038385
		CHANNELS 3 Zrotation Yrotation Xrotation
		JOINT upperback
		{
			OFFSET 0.004488 0.137956 0.026820
			CHANNELS 3 Zrotation Yrotation Xrotation
			JOINT chest
			{
				OFFSET -0.002265 0.056032 0.002855
				CHANNELS 3 Zrotation Yrotation Xrotation
				JOINT lowerneck
				{
					OFFSET -0.013390 0.211636 -0.033468
					CHANNELS 3 Zrotation Yrotation Xrotation
					JOINT upperneck
					{
						OFFSET 0.010113 0.088937 0.050410
						CHANNELS 3 Zrotation Yrotation Xrotation
						End Site
						{
							OFFSET 0.000000 0.000000 0.000000
						}
					}
				}
				JOINT lclavicle
				{
					OFFSET 0.071702 0.114000 -0.018898
					CHANNELS 3 Zrotation Yrotation Xrotation
					JOINT lshoulder
					{
						OFFSET 0.122921 0.045205 -0.019046
						CHANNELS 3 Zrotation Yrotation Xrotation
						JOINT lelbow
						{
							OFFSET 0.255332 -0.015649 -0.022946
							CHANNELS 3 Zrotation Yrotation Xrotation
							JOINT lwrist
							{
								OFFSET 0.265709 0.012698 -0.007375
								CHANNELS 3 Zrotation Yrotation Xrotation
								End Site
								{
									OFFSET 0.000000 0.000000 0.000000
								}
							}
						}
					}
				}
				JOINT rclavicle
				{
					OFFSET -0.082954 0.112472 -0.023707
					CHANNELS 3 Zrotation Yrotation Xrotation
					JOINT rshoulder
					{
						OFFSET -0.113228 0.046853 -0.008472
						CHANNELS 3 Zrotation Yrotation Xrotation
						JOINT relbow
						{
							OFFSET -0.260127 -0.014369 -0.031269
							CHANNELS 3 Zrotation Yrotation Xrotation
							JOINT rwrist
							{
								OFFSET -0.269108 0.006794 -0.006027
								CHANNELS 3 Zrotation Yrotation Xrotation
								End Site
								{
									OFFSET 0.000000 0.000000 0.000000
								}
							}
						}
					}
				}
			}
		}
	}
}
MOTION
Frames: 10
Frame Time: 0.033333
-1.553412 0.657428 0.984223 70.924062 -0.250194 85.263425 1.876955 8.797441 6.870501 -7.608801 5.700779 -5.289752 5.569569 11.409625 -9.831957 0.000000 -0.000000 0.000000 -15.011653 -13.785398 0.699848 0.431469 -13.602968 12.255008 6.672115 -19.369260 -6.602801 0.000000 -0.000000 0.000000 -1.222758 -0.007854 8.154654 3.576073 -5.214276 -7.760594 2.491915 -2.377355 -2.216774 -0.366047 18.309924 -13.942636 0.456808 16.275322 25.803020 -30.562990 -4.683063 2.002018 -29.551206 -16.693838 6.807392 -12.459656 -26.393642 0.413451 19.716626 -20.123286 -9.934737 38.956425 -1.180612 1.961136 28.307940 -0.752744 10.420982 -6.603721 10.226082 -16.047888 1.248132 13.669362 8.712757 
-1.551151 0.662133 0.984488 72.947499 0.153566 85.296929 1.917426 8.288935 6.856414 -7.441049 4.505691 -5.589279 4.963794 11.172698 -9.820822 0.000000 -0.000000 0.000000 -14.995462 -14.396189 0.302362 -0.088492 -13.967608 14.030461 6.249105 -19.768088 -5.750980 0.000000 -0.000000 0.000000 -0.917447 -0.587735 8.557847 3.526568 -5.855553 -8.157125 2.404627 -2.818092 -1.791671 -0.903496 17.942430 -13.620771 0.883377 16.194164 24.580839 -29.818147 -5.105869 1.881467 -28.710724 -18.290155 7.084747 -13.512632 -31.283519 1.289146 21.122229 -19.569788 -12.934272 38.521114 -2.570355 1.514747 28.466064 -3.097874 10.176209 -7.243343 9.972674 -17.453436 0.817653 13.235602 8.257782 
-1.548362 0.665768 0.984861 74.330469 0.349828 85.451323 1.777914 8.073892 6.880770 -7.350077 3.478224 -5.920221 4.971408 11.211538 -9.611195 0.000000 -0.000000 0.000000 -15.067397 -14.532630 -0.432360 -0.574598 -14.390033 15.950701 5.958114 -20.612716 -5.075585 0.000000 -0.000000 0.000000 -1.056386 -1.035497 8.210108 3.671751 -5.834822 -7.833763 2.461751 -3.085183 -1.434548 -1.544910 16.212724 -13.412272 0.126274 15.027909 23.431070 -29.100747 -5.257419 2.036866 -28.472698 -19.668213 7.978589 -14.024706 -36.586865 2.904562 21.706271 -18.560959 -16.175977 37.953123 -3.643975 1.838943 28.659503 -5.405807 10.533900 -7.194272 10.650232 -17.294471 1.434727 12.944737 8.170680 
-1.545176 0.670907 0.985602 76.400587 0.349601 85.341573 1.324228 7.515049 6.954417 -7.199839 2.180546 -5.863079 5.246382 11.020061 -9.581081 0.000000 -0.000000 0.000000 -15.789046 -14.937401 -0.577579 -0.757777 -14.936182 17.746228 5.665983 -21.363381 -3.622462 0.000000 -0.000000 0.000000 -0.794249 -1.218420 8.119554 3.555646 -5.918824 -7.291944 2.091173 -3.617035 -1.130676 -3.247347 11.865740 -12.598249 -1.550948 11.650587 21.762941 -28.640012 -5.282037 2.190952 -28.169358 -21.056301 9.187369 -14.705899 -42.708466 5.342218 22.718459 -17.519246 -19.622154 37.550090 -4.712244 1.901719 29.148477 -8.298473 11.445709 -6.646457 11.882442 -15.690094 1.789403 12.567749 9.085789 
-1.543076 0.673613 0.986213 77.196435 0.436781 85.339475 1.185922 7.322600 7.093885 -7.167166 1.840421 -6.000330 5.324625 11.049614 -9.606954 0.000000 -0.000000 0.000000 -16.142187 -15.370782 -0.530153 -0.743022 -15.223772 18.319017 5.741809 -21.419758 -2.889867 0.000000 -0.000000 0.000000 -0.379940 -1.272588 8.049710 3.459667 -5.660761 -7.205227 1.815766 -3.663147 -1.106448 -4.569874 8.332559 -11.929515 -2.824634 8.439038 22.144195 -28.371150 -5.017032 2.394429 -28.657213 -21.595287 9.901135 -15.253926 -45.831792 6.633910 22.689792 -17.267509 -20.442899 37.306338 -5.484978 1.943393 29.254496 -9.974228 11.512731 -6.009668 12.655074 -14.205234 2.921314 12.676616 10.695163 
-1.540315 0.676672 0.986723 78.015049 0.366906 85.007163 0.850685 6.939343 7.697757 -7.109071 1.216967 -6.275502 5.633509 11.219480 -9.534311 0.000000 -0.000000 0.000000 -16.683918 -15.562837 -0.112619 -0.888104 -15.193766 18.882108 5.410091 -21.495454 -1.848378 0.000000 -0.000000 0.000000 0.083492 -1.299769 7.980669 3.204890 -5.421113 -6.885897 1.133935 -3.656677 -0.786054 -6.347820 4.433708 -10.603895 -4.330448 4.364042 22.889265 -27.978068 -4.280060 2.622657 -29.095470 -22.333085 10.647025 -15.993566 -49.188732 8.743084 22.631397 -16.660928 -21.940395 37.531162 -6.477921 2.004078 29.436890 -10.795471 11.813665 -5.375601 12.981442 -12.044454 3.333361 12.387434 12.739833 
-1.537918 0.679687 0.986546 78.218883 0.308090 84.804290 0.652783 7.142396 8.009177 -7.169471 0.788135 -6.272003 5.923059 11.220769 -9.503270 0.000000 -0.000000 0.000000 -17.123032 -15.600125 0.113962 -1.016652 -14.780495 19.211636 5.321765 -21.108442 -1.187143 0.000000 -0.000000 0.000000 0.452573 -1.448911 7.732185 2.962600 -5.037806 -6.231769 0.632237 -3.252398 -0.685959 -7.590792 1.381434 -9.374806 -5.475081 1.469181 23.380891 -27.711681 -3.283592 2.658423 -30.125497 -22.125158 11.482791 -16.811937 -52.110171 11.195725 22.290637 -15.736221 -22.137152 37.602168 -6.688707 2.162803 29.714494 -11.506709 12.012526 -4.919085 13.021233 -10.466559 4.364291 11.449651 14.362009 
-1.536324 0.682025 0.986370 78.196341 0.164462 84.562636 0.334947 6.823675 8.419278 -7.266397 0.738197 -6.480693 6.073194 11.475664 -9.571554 0.000000 -0.000000 0.000000 -17.553393 -15.351561 0.470361 -1.014857 -14.684665 19.124027 5.254188 -21.103954 -0.650585 0.000000 -0.000000 0.000000 0.595023 -1.340562 7.471905 2.676783 -4.656765 -5.592895 0.198438 -3.210641 -0.451553 -8.084038 -0.300663 -8.033214 -6.198961 -0.109856 23.863414 -27.833281 -2.275680 3.084986 -30.640024 -21.303354 12.419859 -17.678367 -54.555095 13.574824 21.182392 -15.770125 -23.498602 37.737081 -6.451264 2.528273 30.091395 -11.156432 12.370665 -4.781702 12.625674 -10.010074 5.545912 11.147287 14.977511 
-1.535497 0.685098 0.986197 78.324283 0.126361 84.631483 -0.036208 6.625646 8.002377 -7.139576 0.937049 -5.853145 6.283218 11.475765 -9.979712 0.000000 -0.000000 0.000000 -17.813688 -15.511331 0.511459 -1.003588 -14.614225 18.951982 5.472498 -21.054109 -0.538264 0.000000 -0.000000 0.000000 0.811490 -1.148049 7.840844 2.451474 -4.311277 -5.907083 -0.031027 -2.905508 -0.331885 -8.097404 -1.199280 -7.357307 -6.280966 -0.710293 24.301020 -28.733068 -1.176082 3.471116 -31.011651 -20.022498 13.226320 -19.620468 -55.795826 15.523638 21.651830 -15.959196 -23.582006 38.580181 -6.705098 2.183092 28.885792 -10.916723 12.309282 -4.294714 13.240065 -9.768208 5.677614 10.840178 16.587897 
-1.534992 0.688223 0.985349 78.159770 0.041039 84.785962 -0.381177 6.521880 7.803248 -7.178457 1.236983 -5.810839 6.697018 11.455956 -10.190738 0.000000 -0.000000 0.000000 -17.978133 -15.497000 0.707101 -0.785468 -14.543494 18.049151 5.176031 -21.101073 -0.549619 0.000000 -0.000000 0.000000 0.859586 -1.005251 7.678265 2.295143 -4.122156 -5.412488 -0.287688 -2.528410 -0.226908 -7.328057 -0.990137 -7.065910 -6.069496 -0.417501 24.230248 -29.759457 0.096712 3.884604 -31.385227 -17.763169 14.075345 -21.556721 -55.163761 17.664701 20.723746 -16.086769 -24.202221 39.326755 -6.289344 2.560616 27.937582 -9.503842 12.323971 -4.582776 14.131594 -10.385986 5.841825 10.629166 16.886356 
